grf
version=1
nRows=68
nColumns=19
inDegrees=yes
endheader
time	ground_force_2_vx	ground_force_2_vy	ground_force_2_vz	ground_force_2_px	ground_force_2_py	ground_force_2_pz	ground_moment_2_mx	ground_moment_2_my	ground_moment_2_mz	ground_force_3_vx	ground_force_3_vy	ground_force_3_vz	ground_force_3_px	ground_force_3_py	ground_force_3_pz	ground_moment_3_mx	ground_moment_3_my	ground_moment_3_mz
1.432000	70.698735	242.387571	-14.197182	-0.169596	0.000000	0.322460	0.000000	0.261448	0.000000	0.000000	0.000000	0.000000	-0.705340	0.000000	0.132024	0.000000	0.000000	0.000000
1.433000	69.522146	236.721582	-13.798075	-0.169537	0.000000	0.322471	0.000000	0.258007	0.000000	0.000000	0.000000	0.000000	-0.706265	0.000000	0.130309	0.000000	0.000000	0.000000
1.434000	68.333364	231.084056	-13.402388	-0.169479	0.000000	0.322482	0.000000	0.254638	0.000000	0.000000	0.000000	0.000000	-0.708199	0.000000	0.126719	0.000000	0.000000	0.000000
1.435000	67.133144	225.477176	-13.010284	-0.169421	0.000000	0.322492	0.000000	0.251338	0.000000	0.000000	0.000000	0.000000	-0.715722	0.000000	0.112762	0.000000	0.000000	0.000000
1.436000	65.922250	219.903100	-12.621921	-0.169364	0.000000	0.322502	0.000000	0.248104	0.000000	0.000000	0.000000	0.000000	-0.678943	0.000000	0.180999	0.000000	0.000000	0.000000
1.437000	64.701455	214.363954	-12.237455	-0.169307	0.000000	0.322513	0.000000	0.244933	0.000000	0.000000	0.000000	0.000000	-0.697334	0.000000	0.146879	0.000000	0.000000	0.000000
1.438000	63.471539	208.861838	-11.857037	-0.169250	0.000000	0.322524	0.000000	0.241820	0.000000	0.000000	0.000000	0.000000	-0.700047	0.000000	0.141844	0.000000	0.000000	0.000000
1.439000	62.233291	203.398819	-11.480810	-0.169195	0.000000	0.322534	0.000000	0.238764	0.000000	0.000000	0.000000	0.000000	-0.701183	0.000000	0.139737	0.000000	0.000000	0.000000
1.440000	60.987505	197.976929	-11.108918	-0.169142	0.000000	0.322545	0.000000	0.235760	0.000000	0.000000	0.000000	0.000000	-0.701835	0.000000	0.138526	0.000000	0.000000	0.000000
1.441000	59.734981	192.598166	-10.741496	-0.169092	0.000000	0.322555	0.000000	0.232806	0.000000	0.000000	0.000000	0.000000	-0.702279	0.000000	0.137703	0.000000	0.000000	0.000000
1.442000	58.476522	187.264490	-10.378676	-0.169045	0.000000	0.322565	0.000000	0.229899	0.000000	0.000000	0.000000	0.000000	-0.702617	0.000000	0.137076	0.000000	0.000000	0.000000
1.443000	57.212936	181.977821	-10.020585	-0.168998	0.000000	0.322576	0.000000	0.227035	0.000000	0.000000	0.000000	0.000000	-0.702897	0.000000	0.136557	0.000000	0.000000	0.000000
1.444000	55.945033	176.740039	-9.667344	-0.168950	0.000000	0.322589	0.000000	0.224212	0.000000	0.000000	0.000000	0.000000	-0.703144	0.000000	0.136098	0.000000	0.000000	0.000000
1.445000	54.673623	171.552981	-9.319071	-0.168899	0.000000	0.322603	0.000000	0.221427	0.000000	0.000000	0.000000	0.000000	-0.703378	0.000000	0.135664	0.000000	0.000000	0.000000
1.446000	53.399521	166.418439	-8.975876	-0.168845	0.000000	0.322618	0.000000	0.218676	0.000000	0.000000	0.000000	0.000000	-0.703611	0.000000	0.135231	0.000000	0.000000	0.000000
1.447000	52.123536	161.338161	-8.637866	-0.168788	0.000000	0.322636	0.000000	0.215958	0.000000	0.000000	0.000000	0.000000	-0.703858	0.000000	0.134774	0.000000	0.000000	0.000000
1.448000	50.846480	156.313847	-8.305142	-0.168727	0.000000	0.322655	0.000000	0.213270	0.000000	0.000000	0.000000	0.000000	-0.704135	0.000000	0.134260	0.000000	0.000000	0.000000
1.449000	49.569161	151.347146	-7.977799	-0.168665	0.000000	0.322674	0.000000	0.210609	0.000000	0.000000	0.000000	0.000000	-0.704468	0.000000	0.133643	0.000000	0.000000	0.000000
1.450000	48.292383	146.439659	-7.655928	-0.168604	0.000000	0.322694	0.000000	0.207972	0.000000	0.000000	0.000000	0.000000	-0.704903	0.000000	0.132836	0.000000	0.000000	0.000000
1.451000	47.016948	141.592935	-7.339613	-0.168544	0.000000	0.322714	0.000000	0.205357	0.000000	0.000000	0.000000	0.000000	-0.705537	0.000000	0.131659	0.000000	0.000000	0.000000
1.452000	45.743652	136.808469	-7.028934	-0.168485	0.000000	0.322735	0.000000	0.202763	0.000000	0.000000	0.000000	0.000000	-0.706626	0.000000	0.129639	0.000000	0.000000	0.000000
1.453000	44.473284	132.087704	-6.723964	-0.168430	0.000000	0.322755	0.000000	0.200186	0.000000	0.000000	0.000000	0.000000	-0.709153	0.000000	0.124950	0.000000	0.000000	0.000000
1.454000	43.206627	127.432025	-6.424773	-0.168377	0.000000	0.322777	0.000000	0.197625	0.000000	0.000000	0.000000	0.000000	-0.723935	0.000000	0.097525	0.000000	0.000000	0.000000
1.455000	41.944456	122.842764	-6.131422	-0.168325	0.000000	0.322799	0.000000	0.195077	0.000000	0.000000	0.000000	0.000000	-0.689734	0.000000	0.160979	0.000000	0.000000	0.000000
1.456000	40.687537	118.321193	-5.843970	-0.168276	0.000000	0.322820	0.000000	0.192541	0.000000	0.000000	0.000000	0.000000	-0.698371	0.000000	0.144955	0.000000	0.000000	0.000000
1.457000	39.436627	113.868527	-5.562468	-0.168227	0.000000	0.322841	0.000000	0.190016	0.000000	0.000000	0.000000	0.000000	-0.700426	0.000000	0.141141	0.000000	0.000000	0.000000
1.458000	38.192471	109.485922	-5.286962	-0.168179	0.000000	0.322861	0.000000	0.187498	0.000000	0.000000	0.000000	0.000000	-0.701386	0.000000	0.139361	0.000000	0.000000	0.000000
1.459000	36.955804	105.174474	-5.017494	-0.168132	0.000000	0.322879	0.000000	0.184987	0.000000	0.000000	0.000000	0.000000	-0.701967	0.000000	0.138282	0.000000	0.000000	0.000000
1.460000	35.727349	100.935218	-4.754100	-0.168087	0.000000	0.322896	0.000000	0.182482	0.000000	0.000000	0.000000	0.000000	-0.702376	0.000000	0.137523	0.000000	0.000000	0.000000
1.461000	34.507814	96.769130	-4.496809	-0.168044	0.000000	0.322914	0.000000	0.179980	0.000000	0.000000	0.000000	0.000000	-0.702695	0.000000	0.136931	0.000000	0.000000	0.000000
1.462000	33.297895	92.677122	-4.245646	-0.168003	0.000000	0.322932	0.000000	0.177480	0.000000	0.000000	0.000000	0.000000	-0.702964	0.000000	0.136432	0.000000	0.000000	0.000000
1.463000	32.098273	88.660045	-4.000631	-0.167964	0.000000	0.322952	0.000000	0.174982	-0.000000	0.000000	0.000000	0.000000	-0.703207	0.000000	0.135982	0.000000	0.000000	0.000000
1.464000	30.909614	84.718688	-3.761779	-0.167927	0.000000	0.322974	0.000000	0.172484	-0.000000	0.000000	0.000000	0.000000	-0.703439	0.000000	0.135551	0.000000	0.000000	0.000000
1.465000	29.732566	80.853778	-3.529098	-0.167892	0.000000	0.323000	0.000000	0.169986	-0.000000	0.000000	0.000000	0.000000	-0.703675	0.000000	0.135114	0.000000	0.000000	0.000000
1.466000	28.567764	77.065977	-3.302594	-0.167859	0.000000	0.323028	0.000000	0.167486	-0.000000	0.000000	0.000000	0.000000	-0.703927	0.000000	0.134645	0.000000	0.000000	0.000000
1.467000	27.415823	73.355886	-3.082264	-0.167827	0.000000	0.323058	0.000000	0.164983	-0.000000	0.000000	0.000000	0.000000	-0.704216	0.000000	0.134110	0.000000	0.000000	0.000000
1.468000	26.277339	69.724043	-2.868104	-0.167796	0.000000	0.323090	0.000000	0.162478	-0.000000	0.000000	0.000000	0.000000	-0.704570	0.000000	0.133453	0.000000	0.000000	0.000000
1.469000	25.152893	66.170922	-2.660102	-0.167766	0.000000	0.323123	0.000000	0.159968	-0.000000	0.000000	0.000000	0.000000	-0.705045	0.000000	0.132572	0.000000	0.000000	0.000000
1.470000	24.043044	62.696934	-2.458243	-0.167736	0.000000	0.323156	0.000000	0.157455	-0.000000	0.000000	0.000000	0.000000	-0.705762	0.000000	0.131241	0.000000	0.000000	0.000000
1.471000	22.948332	59.302430	-2.262507	-0.167704	0.000000	0.323189	0.000000	0.154937	-0.000000	0.000000	0.000000	0.000000	-0.707071	0.000000	0.128813	0.000000	0.000000	0.000000
1.472000	21.869278	55.987696	-2.072869	-0.167670	0.000000	0.323222	0.000000	0.152415	-0.000000	0.000000	0.000000	0.000000	-0.710542	0.000000	0.122374	0.000000	0.000000	0.000000
1.473000	20.806381	52.752956	-1.889300	-0.167633	0.000000	0.323252	0.000000	0.149887	-0.000000	0.000000	0.000000	0.000000	-0.764142	0.000000	0.022929	0.000000	0.000000	0.000000
1.474000	19.760120	49.598375	-1.711766	-0.167594	0.000000	0.323280	0.000000	0.147355	-0.000000	0.000000	0.000000	0.000000	-0.693941	0.000000	0.153173	0.000000	0.000000	0.000000
1.475000	18.730954	46.524056	-1.540230	-0.167555	0.000000	0.323304	0.000000	0.144817	-0.000000	0.000000	0.000000	0.000000	-0.699120	0.000000	0.143565	0.000000	0.000000	0.000000
1.476000	17.719316	43.530039	-1.374650	-0.167517	0.000000	0.323324	0.000000	0.142274	-0.000000	0.000000	0.000000	0.000000	-0.700739	0.000000	0.140561	0.000000	0.000000	0.000000
1.477000	16.725622	40.616308	-1.214979	-0.167483	0.000000	0.323339	0.000000	0.139726	-0.000000	0.000000	0.000000	0.000000	-0.701564	0.000000	0.139030	0.000000	0.000000	0.000000
1.478000	15.750263	37.782785	-1.061167	-0.167457	0.000000	0.323347	0.000000	0.137173	-0.000000	0.000000	0.000000	0.000000	-0.702088	0.000000	0.138058	0.000000	0.000000	0.000000
1.479000	14.793608	35.029336	-0.913161	-0.167439	0.000000	0.323350	0.000000	0.134616	-0.000000	0.000000	0.000000	0.000000	-0.702467	0.000000	0.137354	0.000000	0.000000	0.000000
1.480000	13.856004	32.355768	-0.770903	-0.167428	0.000000	0.323346	0.000000	0.132055	-0.000000	0.000000	0.000000	0.000000	-0.702770	0.000000	0.136792	0.000000	0.000000	0.000000
1.481000	12.937775	29.761831	-0.634332	-0.167422	0.000000	0.323338	0.000000	0.129490	-0.000000	0.000000	0.000000	0.000000	-0.703030	0.000000	0.136309	0.000000	0.000000	0.000000
1.482000	12.039222	27.247221	-0.503383	-0.167419	0.000000	0.323324	0.000000	0.126921	-0.000000	0.000000	0.000000	0.000000	-0.703269	0.000000	0.135867	0.000000	0.000000	0.000000
1.483000	11.160622	24.811579	-0.377989	-0.167414	0.000000	0.323307	0.000000	0.124350	-0.000000	0.000000	0.000000	0.000000	-0.703501	0.000000	0.135437	0.000000	0.000000	0.000000
1.484000	10.302232	22.454490	-0.258079	-0.167400	0.000000	0.323287	0.000000	0.121777	-0.000000	0.000000	0.000000	0.000000	-0.703739	0.000000	0.134994	0.000000	0.000000	0.000000
1.485000	9.464282	20.175490	-0.143578	-0.167375	0.000000	0.323266	0.000000	0.119203	-0.000000	0.000000	0.000000	0.000000	-0.703999	0.000000	0.134512	0.000000	0.000000	0.000000
1.486000	0.000000	0.000000	0.000000	-0.167335	0.000000	0.323245	0.000000	0.000000	0.000000	0.000000	0.000000	0.000000	-0.704301	0.000000	0.133951	0.000000	0.000000	0.000000
1.487000	0.000000	0.000000	0.000000	-0.167280	0.000000	0.323224	0.000000	0.000000	0.000000	0.000000	0.000000	0.000000	-0.704681	0.000000	0.133248	0.000000	0.000000	0.000000
1.488000	0.000000	0.000000	0.000000	-0.167209	0.000000	0.323202	0.000000	0.000000	0.000000	0.000000	0.000000	0.000000	-0.705203	0.000000	0.132279	0.000000	0.000000	0.000000
1.489000	0.000000	0.000000	0.000000	-0.167123	0.000000	0.323182	0.000000	0.000000	0.000000	0.000000	0.000000	0.000000	-0.706026	0.000000	0.130752	0.000000	0.000000	0.000000
1.490000	0.000000	0.000000	0.000000	-0.167021	0.000000	0.323162	0.000000	0.000000	0.000000	0.000000	0.000000	0.000000	-0.707635	0.000000	0.127764	0.000000	0.000000	0.000000
1.491000	0.000000	0.000000	0.000000	-0.166909	0.000000	0.323144	0.000000	0.000000	0.000000	0.000000	0.000000	0.000000	-0.712760	0.000000	0.118258	0.000000	0.000000	0.000000
1.492000	0.000000	0.000000	0.000000	-0.166786	0.000000	0.323129	0.000000	0.000000	0.000000	0.000000	0.000000	0.000000	-0.639601	0.000000	0.253982	0.000000	0.000000	0.000000
1.493000	0.000000	0.000000	0.000000	-0.166654	0.000000	0.323117	0.000000	0.000000	0.000000	0.000000	0.000000	0.000000	-0.696186	0.000000	0.149001	0.000000	0.000000	0.000000
1.494000	0.000000	0.000000	0.000000	-0.166514	0.000000	0.323108	0.000000	0.000000	0.000000	0.000000	0.000000	0.000000	-0.699686	0.000000	0.142509	0.000000	0.000000	0.000000
1.495000	0.000000	0.000000	0.000000	-0.166367	0.000000	0.323102	0.000000	0.000000	0.000000	0.000000	0.000000	0.000000	-0.701005	0.000000	0.140070	0.000000	0.000000	0.000000
1.496000	0.000000	0.000000	0.000000	-0.166212	0.000000	0.323102	0.000000	0.000000	0.000000	0.000000	0.000000	0.000000	-0.701723	0.000000	0.138738	0.000000	0.000000	0.000000
1.497000	0.000000	0.000000	0.000000	-0.166048	0.000000	0.323108	0.000000	0.000000	0.000000	0.000000	0.000000	0.000000	-0.702197	0.000000	0.137854	0.000000	0.000000	0.000000
1.498000	0.000000	0.000000	0.000000	-0.165873	0.000000	0.323122	0.000000	0.000000	0.000000	0.000000	0.000000	0.000000	-0.702555	0.000000	0.137194	0.000000	0.000000	0.000000
1.499000	0.000000	0.000000	0.000000	-0.165684	0.000000	0.323144	0.000000	0.000000	0.000000	0.000000	0.000000	0.000000	-0.702844	0.000000	0.136660	0.000000	0.000000	0.000000
